{
  "accessors": [
    {
      "bufferView": 2,
      "componentType": 5126,
      "count": 73,
      "max": [
        2.8222410678863525,
        6.382874011993408,
        4.642635822296143
      ],
      "min": [
        -3.0857999324798584,
        0.803970992565155,
        -0.04875899851322174
      ],
      "type": "VEC3"
    },
    {
      "bufferView": 0,
      "componentType": 5125,
      "count": 144,
      "type": "SCALAR"
    },
    {
      "bufferView": 2,
      "byteOffset": 876,
      "componentType": 5126,
      "count": 5459,
      "max": [
        3.3481099605560303,
        6.857569217681885,
        5.028133869171143
      ],
      "min": [
        -3.2343790531158447,
        0.720196008682251,
        -0.22649399936199188
      ],
      "type": "VEC3"
    },
    {
      "bufferView": 2,
      "byteOffset": 66384,
      "componentType": 5126,
      "count": 5459,
      "max": [
        0.9987156391143799,
        0.9991087317466736,
        0.9999246597290039
      ],
      "min": [
        -0.9999529123306274,
        -0.9988304376602173,
        -0.9999933242797852
      ],
      "type": "VEC3"
    },
    {
      "bufferView": 3,
      "componentType": 5126,
      "count": 5459,
      "max": [
        0.999654233455658,
        0.9999243021011353,
        0.9998036026954651,
        1.0
      ],
      "min": [
        -0.9984232783317566,
        -0.9999630451202393,
        -0.999201238155365,
        1.0
      ],
      "type": "VEC4"
    },
    {
      "bufferView": 1,
      "componentType": 5126,
      "count": 5459,
      "max": [
        0.9996529817581177,
        0.9315459728240967
      ],
      "min": [
        0.22702300548553467,
        0.34308499097824097
      ],
      "type": "VEC2"
    },
    {
      "bufferView": 0,
      "byteOffset": 576,
      "componentType": 5125,
      "count": 30960,
      "type": "SCALAR"
    },
    {
      "bufferView": 2,
      "byteOffset": 131892,
      "componentType": 5126,
      "count": 12830,
      "max": [
        1.2947800159454346,
        2.5159618854522705,
        4.902681827545166
      ],
      "min": [
        -0.4010710120201111,
        -0.522599995136261,
        2.580502986907959
      ],
      "type": "VEC3"
    },
    {
      "bufferView": 2,
      "byteOffset": 285852,
      "componentType": 5126,
      "count": 12830,
      "max": [
        0.9999771118164063,
        0.9998947381973267,
        0.9997815489768982
      ],
      "min": [
        -0.9999557733535767,
        -0.9998911619186401,
        -0.9999573230743408
      ],
      "type": "VEC3"
    },
    {
      "bufferView": 3,
      "byteOffset": 87344,
      "componentType": 5126,
      "count": 12830,
      "max": [
        0.9993033409118652,
        0.9989721179008484,
        0.9998947381973267,
        1.0
      ],
      "min": [
        -0.9997346997261047,
        -0.9998170137405396,
        -0.9988038539886475,
        -1.0
      ],
      "type": "VEC4"
    },
    {
      "bufferView": 1,
      "byteOffset": 43672,
      "componentType": 5126,
      "count": 12830,
      "max": [
        0.9872170090675354,
        0.8682739734649658
      ],
      "min": [
        0.00034699999378062785,
        0.00034699999378062785
      ],
      "type": "VEC2"
    },
    {
      "bufferView": 0,
      "byteOffset": 124416,
      "componentType": 5125,
      "count": 71688,
      "type": "SCALAR"
    }
  ],
  "asset": {
    "extras": {
      "author": "Even Topland (https://sketchfab.com/even572)",
      "license": "CC-BY-NC-4.0 (http://creativecommons.org/licenses/by-nc/4.0/)",
      "source": "https://sketchfab.com/3d-models/big-green-aggressive-snake-free-download-e0c3953c4a20416da5aeb58fb5949cc6",
      "title": "Big Green Aggressive Snake Free download"
    },
    "generator": "Sketchfab-12.68.0",
    "version": "2.0"
  },
  "bufferViews": [
    {
      "buffer": 0,
      "byteLength": 411168,
      "name": "floatBufferViews",
      "target": 34963
    },
    {
      "buffer": 0,
      "byteLength": 146312,
      "byteOffset": 411168,
      "byteStride": 8,
      "name": "floatBufferViews",
      "target": 34962
    },
    {
      "buffer": 0,
      "byteLength": 439812,
      "byteOffset": 557480,
      "byteStride": 12,
      "name": "floatBufferViews",
      "target": 34962
    },
    {
      "buffer": 0,
      "byteLength": 292624,
      "byteOffset": 997292,
      "byteStride": 16,
      "name": "floatBufferViews",
      "target": 34962
    }
  ],
  "buffers": [
    {
      "byteLength": 1289916,
      "uri": "scene.bin"
    }
  ],
  "images": [
    {
      "uri": "textures/material_baseColor.png"
    },
    {
      "uri": "textures/material_metallicRoughness.png"
    },
    {
      "uri": "textures/material_normal.png"
    },
    {
      "uri": "textures/Head_baseColor.png"
    },
    {
      "uri": "textures/Head_metallicRoughness.png"
    },
    {
      "uri": "textures/Head_normal.png"
    }
  ],
  "materials": [
    {
      "doubleSided": true,
      "name": "material_0",
      "pbrMetallicRoughness": {
        "metallicFactor": 0.0,
        "roughnessFactor": 0.6
      }
    },
    {
      "doubleSided": true,
      "name": "material",
      "normalTexture": {
        "index": 2
      },
      "pbrMetallicRoughness": {
        "baseColorTexture": {
          "index": 0
        },
        "metallicRoughnessTexture": {
          "index": 1
        }
      }
    },
    {
      "doubleSided": true,
      "name": "Head",
      "normalTexture": {
        "index": 5
      },
      "pbrMetallicRoughness": {
        "baseColorTexture": {
          "index": 3
        },
        "metallicRoughnessTexture": {
          "index": 4
        }
      }
    }
  ],
  "meshes": [
    {
      "name": "Object_0",
      "primitives": [
        {
          "attributes": {
            "POSITION": 0
          },
          "indices": 1,
          "material": 0,
          "mode": 1
        }
      ]
    },
    {
      "name": "Object_1",
      "primitives": [
        {
          "attributes": {
            "NORMAL": 3,
            "POSITION": 2,
            "TANGENT": 4,
            "TEXCOORD_0": 5
          },
          "indices": 6,
          "material": 1,
          "mode": 4
        }
      ]
    },
    {
      "name": "Object_2",
      "primitives": [
        {
          "attributes": {
            "NORMAL": 8,
            "POSITION": 7,
            "TANGENT": 9,
            "TEXCOORD_0": 10
          },
          "indices": 11,
          "material": 2,
          "mode": 4
        }
      ]
    }
  ],
  "nodes": [
    {
      "children": [
        1
      ],
      "matrix": [
        1.0,
        0.0,
        0.0,
        0.0,
        0.0,
        2.220446049250313e-16,
        -1.0,
        0.0,
        0.0,
        1.0,
        2.220446049250313e-16,
        0.0,
        0.0,
        0.0,
        0.0,
        1.0
      ],
      "name": "Sketchfab_model"
    },
    {
      "children": [
        2,
        3,
        4
      ],
      "name": "SnakeForSketchfab.obj.cleaner.materialmerger.gles"
    },
    {
      "mesh": 0,
      "name": "Object_2"
    },
    {
      "mesh": 1,
      "name": "Object_3"
    },
    {
      "mesh": 2,
      "name": "Object_4"
    }
  ],
  "samplers": [
    {
      "magFilter": 9729,
      "minFilter": 9987,
      "wrapS": 10497,
      "wrapT": 10497
    }
  ],
  "scene": 0,
  "scenes": [
    {
      "name": "Sketchfab_Scene",
      "nodes": [
        0
      ]
    }
  ],
  "textures": [
    {
      "sampler": 0,
      "source": 0
    },
    {
      "sampler": 0,
      "source": 1
    },
    {
      "sampler": 0,
      "source": 2
    },
    {
      "sampler": 0,
      "source": 3
    },
    {
      "sampler": 0,
      "source": 4
    },
    {
      "sampler": 0,
      "source": 5
    }
  ]
}
