<svg xmlns="http://www.w3.org/2000/svg" version="1.1" xmlns:xlink="http://www.w3.org/1999/xlink" xmlns:svgjs="http://svgjs.dev/svgjs" width="1000" height="1000" viewBox="0 0 1000 1000"><rect width="1000" height="1000" fill="#000000"></rect><g transform="matrix(0.7,0,0,0.7,149.57575757575756,282.1265587044535)"><svg viewBox="0 0 396 247" data-background-color="#ffffff" preserveAspectRatio="xMidYMid meet" height="623" width="1000" xmlns="http://www.w3.org/2000/svg" xmlns:xlink="http://www.w3.org/1999/xlink"><g id="tight-bounds" transform="matrix(1,0,0,1,0.2400000000000091,-0.09999999999999432)"><svg viewBox="0 0 395.52 247.2" height="247.2" width="395.52"><g><svg></svg></g><g><svg viewBox="0 0 395.52 247.2" height="247.2" width="395.52"><g transform="matrix(1,0,0,1,75.54432,109.36143075085758)"><svg viewBox="0 0 244.43135999999998 28.477138498284845" height="28.477138498284845" width="244.43135999999998"><g><svg viewBox="0 0 244.43135999999998 28.477138498284845" height="28.477138498284845" width="244.43135999999998"><g><svg viewBox="0 0 244.43135999999998 28.477138498284845" height="28.477138498284845" width="244.43135999999998"><g><svg viewBox="0 0 244.43135999999998 28.477138498284845" height="28.477138498284845" width="244.43135999999998"><g id="textblocktransform"><svg viewBox="0 0 244.43135999999998 28.477138498284845" height="28.477138498284845" width="244.43135999999998" id="textblock"><g><svg viewBox="0 0 244.43135999999998 28.477138498284845" height="28.477138498284845" width="244.43135999999998"><g transform="matrix(1,0,0,1,0,0)"><svg width="244.43135999999998" viewBox="2.9000000953674316 -36.20000076293945 393.510009765625 45.849998474121094" height="28.477138498284845" data-palette-color="#398378"><path d="M21.85-32.35L21.85-32.35 21.85-27.25Q18.5-29.35 14.25-29.35L14.25-29.35Q11.5-29.35 9.93-28.13 8.35-26.9 8.35-24.9 8.35-22.9 9.9-21.7 11.45-20.5 14.65-19.1L14.65-19.1Q16.75-18.2 17.93-17.55 19.1-16.9 20.63-15.73 22.15-14.55 22.88-12.93 23.6-11.3 23.6-9.2L23.6-9.2Q23.6-4.75 20.45-2.2 17.3 0.35 12.3 0.35L12.3 0.35Q6.75 0.35 3.1-1.8L3.1-1.8 3.1-7.15Q7.05-4.2 12.25-4.2L12.25-4.2Q15-4.2 16.6-5.48 18.2-6.75 18.2-9L18.2-9Q18.2-10.35 17.25-11.48 16.3-12.6 15.2-13.18 14.1-13.75 11.9-14.75L11.9-14.75Q10.6-15.35 10.08-15.6 9.55-15.85 8.35-16.5 7.15-17.15 6.58-17.6 6-18.05 5.15-18.85 4.3-19.65 3.93-20.45 3.55-21.25 3.23-22.33 2.9-23.4 2.9-24.65L2.9-24.65Q2.9-28.95 6.03-31.45 9.15-33.95 14.1-33.95L14.1-33.95Q18.65-33.95 21.85-32.35ZM29.5-25.35L34.4-25.35 34.4-21Q36.65-25.7 42.3-25.7L42.3-25.7Q46.05-25.7 48.25-23.4 50.45-21.1 50.45-17.15L50.45-17.15 50.45 0 45.55 0 45.55-16Q45.55-18.65 44.22-20.05 42.9-21.45 40.7-21.45L40.7-21.45Q38.1-21.45 36.25-19.43 34.4-17.4 34.4-13.75L34.4-13.75 34.4 0 29.5 0 29.5-25.35ZM70.39-8.45L70.39-11.3 66.59-11.3Q63.8-11.3 62.37-10.2 60.95-9.1 60.95-7.4L60.95-7.4Q60.95-5.65 62.05-4.65 63.14-3.65 65.25-3.65L65.25-3.65Q67.64-3.65 69.02-4.98 70.39-6.3 70.39-8.45L70.39-8.45ZM57.64-19.3L57.64-19.3 57.64-24.05Q60.59-25.75 65.44-25.75L65.44-25.75Q75.39-25.75 75.39-16.1L75.39-16.1 75.39 0 70.55 0 70.55-3Q68.59 0.2 63.7 0.2L63.7 0.2Q60.09 0.2 57.92-1.88 55.74-3.95 55.74-7.15L55.74-7.15Q55.74-10.8 58.49-12.83 61.24-14.85 66.19-14.85L66.19-14.85 70.39-14.85 70.39-16.3Q70.39-18.9 69.14-20.23 67.89-21.55 65-21.55L65-21.55Q60.95-21.55 57.64-19.3ZM86.89 0L81.99 0 81.99-35 86.89-35 86.89 0ZM102.39-25.35L92.74-13.25 102.69 0 96.84 0 87.09-13.25 96.64-25.35 102.39-25.35ZM110.49-14.5L122.74-14.5 122.74-15.4Q122.64-18.25 121.19-19.93 119.74-21.6 117.04-21.6L117.04-21.6Q114.54-21.6 112.74-19.78 110.94-17.95 110.49-14.5L110.49-14.5ZM125.89-5.75L125.89-5.75 125.89-1.35Q123.09 0.25 118.49 0.25L118.49 0.25Q112.59 0.25 109.09-3.3 105.59-6.85 105.59-12.6L105.59-12.6Q105.59-18.7 108.79-22.18 111.99-25.65 116.94-25.65L116.94-25.65Q121.79-25.65 124.64-22.63 127.49-19.6 127.49-13.9L127.49-13.9Q127.49-12.35 127.19-10.65L127.19-10.65 110.54-10.65Q111.04-7.35 113.34-5.6 115.64-3.85 119.14-3.85L119.14-3.85Q123.19-3.85 125.89-5.75ZM147.69-24.5L147.69-24.5 147.69-20.05Q145.24-21.5 141.39-21.5L141.39-21.5Q139.64-21.5 138.61-20.7 137.59-19.9 137.59-18.6L137.59-18.6Q137.59-18.25 137.66-17.93 137.74-17.6 137.94-17.28 138.14-16.95 138.31-16.73 138.49-16.5 138.89-16.25 139.29-16 139.51-15.83 139.74-15.65 140.26-15.4 140.79-15.15 141.04-15.03 141.29-14.9 141.91-14.63 142.54-14.35 142.79-14.25L142.79-14.25Q145.74-12.95 147.41-11.33 149.09-9.7 149.09-7L149.09-7Q149.09-3.6 146.69-1.68 144.29 0.25 140.19 0.25L140.19 0.25Q135.69 0.25 132.69-1.25L132.69-1.25 132.69-5.9Q136.19-3.75 139.94-3.75L139.94-3.75Q141.89-3.75 142.96-4.55 144.04-5.35 144.04-6.65L144.04-6.65Q144.04-7.75 143.19-8.63 142.34-9.5 141.46-9.93 140.59-10.35 138.49-11.25L138.49-11.25Q132.54-13.7 132.54-18.45L132.54-18.45Q132.54-21.8 135.04-23.7 137.54-25.6 141.29-25.6L141.29-25.6Q145.39-25.6 147.69-24.5ZM179.83-8.45L179.83-11.3 176.03-11.3Q173.23-11.3 171.81-10.2 170.38-9.1 170.38-7.4L170.38-7.4Q170.38-5.65 171.48-4.65 172.58-3.65 174.68-3.65L174.68-3.65Q177.08-3.65 178.46-4.98 179.83-6.3 179.83-8.45L179.83-8.45ZM167.08-19.3L167.08-19.3 167.08-24.05Q170.03-25.75 174.88-25.75L174.88-25.75Q184.83-25.75 184.83-16.1L184.83-16.1 184.83 0 179.98 0 179.98-3Q178.03 0.2 173.13 0.2L173.13 0.2Q169.53 0.2 167.36-1.88 165.18-3.95 165.18-7.15L165.18-7.15Q165.18-10.8 167.93-12.83 170.68-14.85 175.63-14.85L175.63-14.85 179.83-14.85 179.83-16.3Q179.83-18.9 178.58-20.23 177.33-21.55 174.43-21.55L174.43-21.55Q170.38-21.55 167.08-19.3ZM191.43-25.35L196.33-25.35 196.33-21Q198.58-25.7 204.23-25.7L204.23-25.7Q207.98-25.7 210.18-23.4 212.38-21.1 212.38-17.15L212.38-17.15 212.38 0 207.48 0 207.48-16Q207.48-18.65 206.16-20.05 204.83-21.45 202.63-21.45L202.63-21.45Q200.03-21.45 198.18-19.43 196.33-17.4 196.33-13.75L196.33-13.75 196.33 0 191.43 0 191.43-25.35ZM229.23-3.95L229.23-3.95Q232.13-3.95 234.13-6.15 236.13-8.35 236.13-12.85L236.13-12.85Q236.13-17.2 234.05-19.3 231.98-21.4 229.38-21.4L229.38-21.4Q226.43-21.4 224.53-19.07 222.63-16.75 222.63-12.45L222.63-12.45Q222.63-8.65 224.5-6.3 226.38-3.95 229.23-3.95ZM236.13-21.5L236.13-35.35 241.08-35.35 241.08 0 236.13 0 236.13-3.85Q233.48 0.35 228.38 0.35L228.38 0.35Q223.38 0.35 220.48-3.43 217.58-7.2 217.58-12.55L217.58-12.55Q217.58-18.5 220.63-22.1 223.68-25.7 228.48-25.7L228.48-25.7Q233.43-25.7 236.13-21.5L236.13-21.5ZM257.92-33.7L280.72-33.7 280.72-29.4 271.87-29.4 271.87 0 266.72 0 266.72-29.4 257.92-29.4 257.92-33.7ZM285.27-35.35L290.17-35.35 290.17-21Q292.32-25.7 298.02-25.7L298.02-25.7Q301.72-25.7 303.97-23.4 306.22-21.1 306.22-17L306.22-17 306.22 0 301.32 0 301.32-16Q301.32-18.6 300-20.03 298.67-21.45 296.52-21.45L296.52-21.45Q294.02-21.45 292.1-19.55 290.17-17.65 290.17-13.75L290.17-13.75 290.17 0 285.27 0 285.27-35.35ZM317.97 0L313.02 0 313.02-25.35 317.97-25.35 317.97 0ZM313.29-30.93Q312.42-31.8 312.42-33.1 312.42-34.4 313.29-35.3 314.17-36.2 315.47-36.2 316.77-36.2 317.67-35.3 318.57-34.4 318.57-33.1L318.57-33.1Q318.57-31.85 317.67-30.95 316.77-30.05 315.47-30.05 314.17-30.05 313.29-30.93ZM325.07-25.35L329.97-25.35 329.97-21Q332.22-25.7 337.87-25.7L337.87-25.7Q341.62-25.7 343.82-23.4 346.02-21.1 346.02-17.15L346.02-17.15 346.02 0 341.12 0 341.12-16Q341.12-18.65 339.79-20.05 338.47-21.45 336.27-21.45L336.27-21.45Q333.67-21.45 331.82-19.43 329.97-17.4 329.97-13.75L329.97-13.75 329.97 0 325.07 0 325.07-25.35ZM362.61-4.9L362.61-4.9Q365.21-4.9 367.14-6.93 369.06-8.95 369.06-12.6L369.06-12.6Q369.06-17.1 367.24-19.25 365.41-21.4 362.81-21.4L362.81-21.4Q359.86-21.4 358.16-19.07 356.46-16.75 356.46-12.95L356.46-12.95Q356.46-9 358.29-6.95 360.11-4.9 362.61-4.9ZM369.06-21.4L369.06-25.35 373.96-25.35 373.96-2.15Q373.96 3.7 370.64 6.68 367.31 9.65 362.11 9.65L362.11 9.65Q357.21 9.65 353.86 8L353.86 8 353.86 3.05Q357.06 5.15 361.61 5.15L361.61 5.15Q369.06 5.15 369.06-2.2L369.06-2.2 369.06-4.8Q366.61-0.7 361.71-0.7L361.71-0.7Q357.41-0.7 354.36-3.88 351.31-7.05 351.31-12.85L351.31-12.85Q351.31-18.45 354.16-22.08 357.01-25.7 361.71-25.7L361.71-25.7Q366.76-25.7 369.06-21.4L369.06-21.4ZM395.01-24.5L395.01-24.5 395.01-20.05Q392.56-21.5 388.71-21.5L388.71-21.5Q386.96-21.5 385.94-20.7 384.91-19.9 384.91-18.6L384.91-18.6Q384.91-18.25 384.99-17.93 385.06-17.6 385.26-17.28 385.46-16.95 385.64-16.73 385.81-16.5 386.21-16.25 386.61-16 386.84-15.83 387.06-15.65 387.59-15.4 388.11-15.15 388.36-15.03 388.61-14.9 389.24-14.63 389.86-14.35 390.11-14.25L390.11-14.25Q393.06-12.95 394.74-11.33 396.41-9.7 396.41-7L396.41-7Q396.41-3.6 394.01-1.68 391.61 0.25 387.51 0.25L387.51 0.25Q383.01 0.25 380.01-1.25L380.01-1.25 380.01-5.9Q383.51-3.75 387.26-3.75L387.26-3.75Q389.21-3.75 390.29-4.55 391.36-5.35 391.36-6.65L391.36-6.65Q391.36-7.75 390.51-8.63 389.66-9.5 388.79-9.93 387.91-10.35 385.81-11.25L385.81-11.25Q379.86-13.7 379.86-18.45L379.86-18.45Q379.86-21.8 382.36-23.7 384.86-25.6 388.61-25.6L388.61-25.6Q392.71-25.6 395.01-24.5Z" opacity="1" transform="matrix(1,0,0,1,0,0)" fill="#ffffff" class="undefined-text-0" data-fill-palette-color="primary" id="text-0"></path></svg></g></svg></g></svg></g></svg></g></svg></g></svg></g></svg></g><path d="M174.543 103.361L174.543 38.953 5.249 38.953 5.249 208.247 174.543 208.247 174.543 143.839 171.975 143.839 171.975 205.679 7.817 205.679 7.817 41.521 171.975 41.521 171.975 103.361Z" fill="#ffffff" stroke="transparent" data-fill-palette-color="primary"></path></svg></g><defs></defs></svg><rect width="395.52" height="247.2" fill="none" stroke="none" visibility="hidden"></rect></g></svg></g></svg>